# xmcd CD database file
#
# Track frame offsets:
#	150
#	30430
#	62517
#	82097
#	100907
#	123365
#	151850
#	176867
#	197212
#	214682
#	246532
#
# Disc length: 3660 seconds
#
# Revision: 0
# Processed by: cddbd v1.5.2PL0 Copyright (c) Steve Scherf et al.
# Submitted via: CDex 1.51
#
DISCID=960e4a0b
DTITLE=Lee Ritenour - The Best Of Lee Ritenour
DYEAR=2003
DGENRE=Jazz
TTITLE0=Sun Song
TTITLE1=Captain Fingers
TTITLE2=Caterpillar
TTITLE3=Theme From "Three Days Of The Condor"
TTITLE4=Fly By Night
TTITLE5=A Little Bit Of This And A Little Bit Of That
TTITLE6=Wild Rice
TTITLE7=Isn't She Lovely
TTITLE8=Ohla Maria (Amparo)
TTITLE9=Dolphin Dreams
TTITLE10=Canticle For The Universe
EXTD=YEAR: 2003
EXTT0=
EXTT1=
EXTT2=
EXTT3=
EXTT4=
EXTT5=
EXTT6=
EXTT7=
EXTT8=
EXTT9=
EXTT10=
PLAYORDER=
